<svg xmlns="http://www.w3.org/2000/svg" xmlns:xlink="http://www.w3.org/1999/xlink">
<!-- <symbol id="twitterCard" viewBox="0 0 42 42">
	<rect width="41.9999" height="42" fill="#5DCBE6" />
	<path d="M28.9441 16.9264C28.9568 17.104 28.9568 17.2817 28.9568 17.4594C28.9568 22.8781 24.8325 29.1218 17.2944 29.1218C14.9721 29.1218 12.8147 28.4492 11 27.2817C11.33 27.3198 11.6472 27.3325 11.9898 27.3325C13.9061 27.3325 15.67 26.6853 17.0787 25.5812C15.2766 25.5431 13.7665 24.3629 13.2462 22.7386C13.5 22.7766 13.7538 22.802 14.0203 22.802C14.3883 22.802 14.7564 22.7512 15.099 22.6624C13.2208 22.2817 11.8121 20.632 11.8121 18.6396V18.5888C12.3578 18.8934 12.9924 19.0838 13.6649 19.1091C12.5609 18.3731 11.8375 17.1167 11.8375 15.6954C11.8375 14.934 12.0405 14.236 12.3959 13.6269C14.4137 16.1142 17.4467 17.7385 20.8477 17.9162C20.7842 17.6117 20.7461 17.2944 20.7461 16.9772C20.7461 14.7183 22.5736 12.8782 24.8451 12.8782C26.0253 12.8782 27.0913 13.3731 27.84 14.1726C28.7664 13.9949 29.6547 13.6523 30.4416 13.1827C30.137 14.1345 29.4898 14.934 28.6395 15.4416C29.4644 15.3528 30.2639 15.1243 30.9999 14.8071C30.4416 15.6193 29.7436 16.3426 28.9441 16.9264Z" fill="white" />
</symbol> -->
<symbol id="twitterCard" viewBox="0 0 20 20">
	<path d="M17.9441 4.92638C17.9568 5.10403 17.9568 5.28173 17.9568 5.45938C17.9568 10.8781 13.8325 17.1218 6.29441 17.1218C3.97207 17.1218 1.81473 16.4492 0 15.2817C0.329961 15.3198 0.647187 15.3325 0.989844 15.3325C2.90605 15.3325 4.67004 14.6853 6.07867 13.5812C4.27664 13.5431 2.76648 12.3629 2.24617 10.7386C2.5 10.7766 2.75379 10.802 3.02031 10.802C3.38832 10.802 3.75637 10.7512 4.09898 10.6624C2.22082 10.2817 0.812148 8.63196 0.812148 6.63958V6.58884C1.35781 6.89341 1.99238 7.08376 2.66492 7.10911C1.56086 6.37306 0.837539 5.11673 0.837539 3.6954C0.837539 2.93399 1.04055 2.23603 1.3959 1.62688C3.41367 4.11419 6.44668 5.73853 9.84766 5.91622C9.78422 5.61165 9.74613 5.29442 9.74613 4.97716C9.74613 2.71825 11.5736 0.878174 13.8451 0.878174C15.0253 0.878174 16.0913 1.3731 16.84 2.17259C17.7664 1.99493 18.6547 1.65228 19.4416 1.18274C19.137 2.13454 18.4898 2.93403 17.6395 3.44161C18.4644 3.35282 19.2639 3.12435 19.9999 2.80712C19.4416 3.61927 18.7436 4.34259 17.9441 4.92638V4.92638Z" fill="white"/>
</symbol>
<symbol id="facebookCard" viewBox="0 0 13 18">
	<path d="M10.7724 11.25L11.3429 7.63047H7.77634V5.28164C7.77634 4.29141 8.27456 3.32617 9.87189 3.32617H11.4933V0.244531C11.4933 0.244531 10.0219 0 8.61512 0C5.67799 0 3.75815 1.73359 3.75815 4.87188V7.63047H0.493286V11.25H3.75815V20H7.77634V11.25H10.7724Z" fill="white" />
</symbol>
<symbol id="instagramCard" viewBox="0 0 22 20">
	<path d="M10.9977 15.1277C8.15941 15.1277 5.87 12.8383 5.87 9.99998C5.87 7.16165 8.15941 4.87224 10.9977 4.87224C13.8361 4.87224 16.1255 7.16165 16.1255 9.99998C16.1255 12.8383 13.8361 15.1277 10.9977 15.1277ZM10.9977 6.66628C9.16354 6.66628 7.66404 8.16131 7.66404 9.99998C7.66404 11.8387 9.15908 13.3337 10.9977 13.3337C12.8364 13.3337 14.3315 11.8387 14.3315 9.99998C14.3315 8.16131 12.832 6.66628 10.9977 6.66628V6.66628ZM17.5313 15.3375C17.5313 14.6725 16.9957 14.1415 16.3352 14.1415C15.6703 14.1415 15.1392 14.677 15.1392 15.3375C15.1392 15.998 15.6748 16.5335 16.3352 16.5335C16.9957 16.5335 17.5313 15.998 17.5313 15.3375ZM20.9275 14.1236C20.8516 15.7257 20.4856 17.1449 19.3119 18.3142C18.1427 19.4834 16.7235 19.8494 15.1214 19.9297C13.4701 20.0234 8.5209 20.0234 6.86967 19.9297C5.27199 19.8538 3.85282 19.4879 2.67911 18.3186C1.50539 17.1494 1.14391 15.7302 1.06358 14.1281C0.969856 12.4768 0.969856 7.5276 1.06358 5.87637C1.13944 4.27422 1.50539 2.85506 2.67911 1.6858C3.85282 0.516552 5.26752 0.150604 6.86967 0.0702739C8.5209 -0.0234447 13.4701 -0.0234447 15.1214 0.0702739C16.7235 0.146141 18.1427 0.51209 19.3119 1.6858C20.4812 2.85506 20.8471 4.27422 20.9275 5.87637C21.0212 7.5276 21.0212 12.4724 20.9275 14.1236V14.1236ZM18.7942 4.10464C18.4461 3.22993 17.7723 2.55605 16.8931 2.20349C15.5766 1.68134 12.4526 1.80184 10.9977 1.80184C9.54288 1.80184 6.41446 1.6858 5.1024 2.20349C4.22769 2.55159 3.55381 3.22547 3.20125 4.10464C2.67911 5.42116 2.7996 8.54511 2.7996 9.99998C2.7996 11.4549 2.68357 14.5833 3.20125 15.8953C3.54935 16.77 4.22323 17.4439 5.1024 17.7965C6.41892 18.3186 9.54288 18.1981 10.9977 18.1981C12.4526 18.1981 15.581 18.3142 16.8931 17.7965C17.7678 17.4484 18.4417 16.7745 18.7942 15.8953C19.3164 14.5788 19.1959 11.4549 19.1959 9.99998C19.1959 8.54511 19.3164 5.4167 18.7942 4.10464Z" fill="white"/>
</symbol>

<symbol id="twitter" viewBox="0 0 42 42">
	<path d="M28.9441 16.9264C28.9568 17.104 28.9568 17.2817 28.9568 17.4594C28.9568 22.8781 24.8325 29.1218 17.2944 29.1218C14.9721 29.1218 12.8147 28.4492 11 27.2817C11.33 27.3198 11.6472 27.3325 11.9898 27.3325C13.9061 27.3325 15.67 26.6853 17.0787 25.5812C15.2766 25.5431 13.7665 24.3629 13.2462 22.7386C13.5 22.7766 13.7538 22.802 14.0203 22.802C14.3883 22.802 14.7564 22.7512 15.099 22.6624C13.2208 22.2817 11.8121 20.632 11.8121 18.6396V18.5888C12.3578 18.8934 12.9924 19.0838 13.6649 19.1091C12.5609 18.3731 11.8375 17.1167 11.8375 15.6954C11.8375 14.934 12.0405 14.236 12.3959 13.6269C14.4137 16.1142 17.4467 17.7385 20.8477 17.9162C20.7842 17.6117 20.7461 17.2944 20.7461 16.9772C20.7461 14.7183 22.5736 12.8782 24.8451 12.8782C26.0253 12.8782 27.0913 13.3731 27.84 14.1726C28.7664 13.9949 29.6547 13.6523 30.4416 13.1827C30.137 14.1345 29.4898 14.934 28.6395 15.4416C29.4644 15.3528 30.2639 15.1243 30.9999 14.8071C30.4416 15.6193 29.7436 16.3426 28.9441 16.9264Z" />
</symbol>
<symbol id="facebook" viewBox="0 0 42 42">
	<path d="M25.6539 22.25L26.2094 18.6305H22.7364V16.2816C22.7364 15.2914 23.2215 14.3262 24.777 14.3262H26.3559V11.2445C26.3559 11.2445 24.9231 11 23.5531 11C20.693 11 18.8235 12.7336 18.8235 15.8719V18.6305H15.6442V22.25H18.8235V31H22.7364V22.25H25.6539Z" />
</symbol>
<symbol id="instagram" viewBox="0 0 42 42">
	<path d="M21.9977 26.1277C19.1594 26.1277 16.87 23.8383 16.87 21C16.87 18.1616 19.1594 15.8722 21.9977 15.8722C24.8361 15.8722 27.1255 18.1616 27.1255 21C27.1255 23.8383 24.8361 26.1277 21.9977 26.1277ZM21.9977 17.6663C20.1635 17.6663 18.664 19.1613 18.664 21C18.664 22.8387 20.1591 24.3337 21.9977 24.3337C23.8364 24.3337 25.3315 22.8387 25.3315 21C25.3315 19.1613 23.832 17.6663 21.9977 17.6663ZM28.5313 26.3375C28.5313 25.6725 27.9957 25.1415 27.3352 25.1415C26.6703 25.1415 26.1392 25.677 26.1392 26.3375C26.1392 26.998 26.6748 27.5335 27.3352 27.5335C27.9957 27.5335 28.5313 26.998 28.5313 26.3375ZM31.9275 25.1236C31.8516 26.7257 31.4856 28.1449 30.3119 29.3142C29.1427 30.4834 27.7235 30.8494 26.1214 30.9297C24.4701 31.0234 19.5209 31.0234 17.8697 30.9297C16.272 30.8538 14.8528 30.4879 13.6791 29.3186C12.5054 28.1494 12.1439 26.7302 12.0636 25.1281C11.9699 23.4768 11.9699 18.5276 12.0636 16.8764C12.1394 15.2742 12.5054 13.8551 13.6791 12.6858C14.8528 11.5166 16.2675 11.1506 17.8697 11.0703C19.5209 10.9766 24.4701 10.9766 26.1214 11.0703C27.7235 11.1461 29.1427 11.5121 30.3119 12.6858C31.4812 13.8551 31.8471 15.2742 31.9275 16.8764C32.0212 18.5276 32.0212 23.4724 31.9275 25.1236ZM29.7942 15.1046C29.4461 14.2299 28.7723 13.556 27.8931 13.2035C26.5766 12.6813 23.4526 12.8018 21.9977 12.8018C20.5429 12.8018 17.4145 12.6858 16.1024 13.2035C15.2277 13.5516 14.5538 14.2255 14.2013 15.1046C13.6791 16.4212 13.7996 19.5451 13.7996 21C13.7996 22.4549 13.6836 25.5833 14.2013 26.8953C14.5494 27.77 15.2232 28.4439 16.1024 28.7965C17.4189 29.3186 20.5429 29.1981 21.9977 29.1981C23.4526 29.1981 26.581 29.3142 27.8931 28.7965C28.7678 28.4484 29.4417 27.7745 29.7942 26.8953C30.3164 25.5788 30.1959 22.4549 30.1959 21C30.1959 19.5451 30.3164 16.4167 29.7942 15.1046Z" />
</symbol>
<symbol id="linkedin" viewBox="0 0 42 42">
	<path d="M16.4766 31H12.3301V17.647H16.4766V31ZM14.4011 15.8256C13.0752 15.8256 11.9998 14.7273 11.9998 13.4014C11.9998 12.7645 12.2528 12.1537 12.7031 11.7034C13.1535 11.253 13.7643 11 14.4011 11C15.038 11 15.6488 11.253 16.0992 11.7034C16.5495 12.1537 16.8025 12.7645 16.8025 13.4014C16.8025 14.7273 15.7266 15.8256 14.4011 15.8256ZM31.9957 31H27.8581V24.4999C27.8581 22.9507 27.8269 20.9641 25.7023 20.9641C23.5464 20.9641 23.2161 22.6471 23.2161 24.3882V31H19.074V17.647H23.0509V19.4685H23.1089C23.6625 18.4194 25.0148 17.3122 27.0322 17.3122C31.2288 17.3122 32.0002 20.0756 32.0002 23.665V31H31.9957Z" />
</symbol>
<symbol id="telegram" viewBox="0 0 42 42">
	<path d="M30.5497 14.4566L27.6523 28.0342C27.4337 28.9924 26.8637 29.2309 26.0536 28.7795L21.6389 25.5469L19.5087 27.5827C19.273 27.817 19.0758 28.0129 18.6215 28.0129L18.9387 23.5452L27.1208 16.1985C27.4766 15.8833 27.0437 15.7087 26.5679 16.0239L16.4527 22.3527L12.0981 20.9984C11.1508 20.7045 11.1337 20.0571 12.2952 19.6057L29.3282 13.0852C30.1168 12.7913 30.8069 13.2598 30.5497 14.4566Z" />
</symbol>
</svg>
